<svg version="1" xmlns="http://www.w3.org/2000/svg" width="233.333" height="233.333" viewBox="0 0 175.000000 175.000000"><path d="M17.7 56.7c-1.5 1.4-.6 5.3 1.6 7 1.3 1 12.3 6.3 24.5 11.8C55.9 81 65.6 85.7 65.2 86.1c-.4.3-10.4 5-22.2 10.4-26.7 12.3-26.2 12-25.8 15.9.5 5.6 5.1 4.4 34.3-9.3 14.3-6.7 26.8-12.9 27.7-13.8 2.5-2.2 2.3-6-.4-7.7-1.3-.8-14.1-6.9-28.6-13.5-23.9-11-30.6-13.4-32.5-11.4zM129 65.8c-34.9 16-34.9 16-35.6 18.8-.5 1.8-.1 3.1 1.2 4.4 1.1 1 14.2 7.5 29.1 14.5 29.6 13.7 32.6 14.5 33.1 8.9.2-1.7-.3-3.6-1-4.2-.8-.6-11.3-5.6-23.3-11.2-12.1-5.6-22.3-10.5-22.8-10.9-.4-.4 9-5.2 21-10.6 26.9-12.2 26.5-11.9 26.1-15.9-.5-5.5-3.9-4.7-27.8 6.2z"/></svg>